<svg id="visual" viewBox="0 0 960 540" width="960" height="540" xmlns="http://www.w3.org/2000/svg" xmlns:xlink="http://www.w3.org/1999/xlink" version="1.1"><g stroke-width="1" stroke-linejoin="bevel"><path d="M502.3 230L506.3 193L442.7 210Z" fill="#626262" stroke="#000000"></path><path d="M442.7 210L400.7 307L502.3 230Z" fill="#505050" stroke="#000000"></path><path d="M660 201L545.3 93L506.3 193Z" fill="#1f1f1f" stroke="#000000"></path><path d="M506.3 193L393.7 83L442.7 210Z" fill="#626262" stroke="#000000"></path><path d="M312 206L336 249L442.7 210Z" fill="#6b6b6b" stroke="#000000"></path><path d="M442.7 210L336 249L400.7 307Z" fill="#3f3f3f" stroke="#000000"></path><path d="M545.3 93L393.7 83L506.3 193Z" fill="#6b6b6b" stroke="#000000"></path><path d="M393.7 83L312 206L442.7 210Z" fill="#474747" stroke="#000000"></path><path d="M341 369L445.7 375L400.7 307Z" fill="#181818" stroke="#000000"></path><path d="M400.7 307L445.7 375L502.3 230Z" fill="#3f3f3f" stroke="#000000"></path><path d="M538.3 390L620 302L502.3 230Z" fill="#505050" stroke="#000000"></path><path d="M502.3 230L660 201L506.3 193Z" fill="#505050" stroke="#000000"></path><path d="M620 302L660 201L502.3 230Z" fill="#181818" stroke="#000000"></path><path d="M445.7 375L538.3 390L502.3 230Z" fill="#373737" stroke="#000000"></path><path d="M551.3 0L451.7 0L545.3 93Z" fill="#6b6b6b" stroke="#000000"></path><path d="M545.3 93L451.7 0L393.7 83Z" fill="#1f1f1f" stroke="#000000"></path><path d="M336 249L341 369L400.7 307Z" fill="#626262" stroke="#000000"></path><path d="M445.7 375L552.3 450L538.3 390Z" fill="#373737" stroke="#000000"></path><path d="M192.3 291L341 369L336 249Z" fill="#272727" stroke="#000000"></path><path d="M655 0L551.3 0L545.3 93Z" fill="#595959" stroke="#000000"></path><path d="M393.7 83L280 82L312 206Z" fill="#3f3f3f" stroke="#000000"></path><path d="M312 206L192.3 291L336 249Z" fill="#373737" stroke="#000000"></path><path d="M325 0L280 82L393.7 83Z" fill="#181818" stroke="#000000"></path><path d="M620 302L709.7 251L660 201Z" fill="#626262" stroke="#000000"></path><path d="M660 201L677 51L545.3 93Z" fill="#373737" stroke="#000000"></path><path d="M679 397L709.7 251L620 302Z" fill="#272727" stroke="#000000"></path><path d="M280 82L245.3 149L312 206Z" fill="#505050" stroke="#000000"></path><path d="M426.7 479L552.3 450L445.7 375Z" fill="#474747" stroke="#000000"></path><path d="M538.3 390L679 397L620 302Z" fill="#505050" stroke="#000000"></path><path d="M768.7 76L677 51L660 201Z" fill="#626262" stroke="#000000"></path><path d="M451.7 0L325 0L393.7 83Z" fill="#373737" stroke="#000000"></path><path d="M677 51L655 0L545.3 93Z" fill="#626262" stroke="#000000"></path><path d="M341 465L426.7 479L445.7 375Z" fill="#181818" stroke="#000000"></path><path d="M552.3 450L679 397L538.3 390Z" fill="#505050" stroke="#000000"></path><path d="M180.3 416L341 465L341 369Z" fill="#595959" stroke="#000000"></path><path d="M341 369L341 465L445.7 375Z" fill="#2f2f2f" stroke="#000000"></path><path d="M245.3 149L192.3 291L312 206Z" fill="#505050" stroke="#000000"></path><path d="M280 82L189.3 125L245.3 149Z" fill="#181818" stroke="#000000"></path><path d="M245.3 149L119.7 211L192.3 291Z" fill="#2f2f2f" stroke="#000000"></path><path d="M236.3 0L189.3 125L280 82Z" fill="#6b6b6b" stroke="#000000"></path><path d="M552.3 450L668 447L679 397Z" fill="#474747" stroke="#000000"></path><path d="M656 540L668 447L552.3 450Z" fill="#272727" stroke="#000000"></path><path d="M836.3 208L783.7 181L837.3 283Z" fill="#595959" stroke="#000000"></path><path d="M709.7 251L783.7 181L660 201Z" fill="#373737" stroke="#000000"></path><path d="M677 51L735.7 0L655 0Z" fill="#181818" stroke="#000000"></path><path d="M774.7 377L709.7 251L679 397Z" fill="#595959" stroke="#000000"></path><path d="M325 0L236.3 0L280 82Z" fill="#595959" stroke="#000000"></path><path d="M783.7 181L768.7 76L660 201Z" fill="#626262" stroke="#000000"></path><path d="M142.7 306L190.3 357L192.3 291Z" fill="#595959" stroke="#000000"></path><path d="M192.3 291L190.3 357L341 369Z" fill="#6b6b6b" stroke="#000000"></path><path d="M768.7 76L735.7 0L677 51Z" fill="#181818" stroke="#000000"></path><path d="M348 540L419.7 540L426.7 479Z" fill="#373737" stroke="#000000"></path><path d="M426.7 479L562.3 540L552.3 450Z" fill="#6b6b6b" stroke="#000000"></path><path d="M348 540L426.7 479L341 465Z" fill="#272727" stroke="#000000"></path><path d="M419.7 540L562.3 540L426.7 479Z" fill="#1f1f1f" stroke="#000000"></path><path d="M768.7 480L679 397L668 447Z" fill="#181818" stroke="#000000"></path><path d="M768.7 480L774.7 377L679 397Z" fill="#626262" stroke="#000000"></path><path d="M119.7 211L142.7 306L192.3 291Z" fill="#626262" stroke="#000000"></path><path d="M233.3 540L348 540L341 465Z" fill="#2f2f2f" stroke="#000000"></path><path d="M180.3 416L341 369L190.3 357Z" fill="#6b6b6b" stroke="#000000"></path><path d="M189.3 125L119.7 211L245.3 149Z" fill="#6b6b6b" stroke="#000000"></path><path d="M130.7 58L119.7 211L189.3 125Z" fill="#3f3f3f" stroke="#000000"></path><path d="M837.3 283L783.7 181L709.7 251Z" fill="#181818" stroke="#000000"></path><path d="M783.7 181L840.3 126L768.7 76Z" fill="#373737" stroke="#000000"></path><path d="M768.7 76L827.3 0L735.7 0Z" fill="#272727" stroke="#000000"></path><path d="M90.7 392L180.3 416L190.3 357Z" fill="#6b6b6b" stroke="#000000"></path><path d="M774.7 377L837.3 283L709.7 251Z" fill="#626262" stroke="#000000"></path><path d="M960 166L840.3 126L836.3 208Z" fill="#626262" stroke="#000000"></path><path d="M836.3 208L840.3 126L783.7 181Z" fill="#1f1f1f" stroke="#000000"></path><path d="M236.3 0L130.7 58L189.3 125Z" fill="#595959" stroke="#000000"></path><path d="M562.3 540L656 540L552.3 450Z" fill="#2f2f2f" stroke="#000000"></path><path d="M656 540L768.7 480L668 447Z" fill="#595959" stroke="#000000"></path><path d="M774.7 377L883.3 386L837.3 283Z" fill="#272727" stroke="#000000"></path><path d="M840.3 126L827.3 0L768.7 76Z" fill="#181818" stroke="#000000"></path><path d="M180.3 416L233.3 540L341 465Z" fill="#3f3f3f" stroke="#000000"></path><path d="M768.7 480L836.3 427L774.7 377Z" fill="#505050" stroke="#000000"></path><path d="M960 272L960 166L836.3 208Z" fill="#181818" stroke="#000000"></path><path d="M236.3 0L108.7 0L130.7 58Z" fill="#505050" stroke="#000000"></path><path d="M0 141L0 268L119.7 211Z" fill="#626262" stroke="#000000"></path><path d="M142.7 306L90.7 392L190.3 357Z" fill="#181818" stroke="#000000"></path><path d="M180.3 416L93.7 540L233.3 540Z" fill="#3f3f3f" stroke="#000000"></path><path d="M0 268L90.7 392L142.7 306Z" fill="#505050" stroke="#000000"></path><path d="M70.7 430L90.7 392L0 383Z" fill="#3f3f3f" stroke="#000000"></path><path d="M836.3 427L883.3 386L774.7 377Z" fill="#373737" stroke="#000000"></path><path d="M840.3 126L960 84L827.3 0Z" fill="#373737" stroke="#000000"></path><path d="M768.7 480L830.3 540L836.3 427Z" fill="#1f1f1f" stroke="#000000"></path><path d="M836.3 427L960 430L883.3 386Z" fill="#1f1f1f" stroke="#000000"></path><path d="M656 540L779.7 540L768.7 480Z" fill="#626262" stroke="#000000"></path><path d="M0 268L142.7 306L119.7 211Z" fill="#272727" stroke="#000000"></path><path d="M90.7 392L70.7 430L180.3 416Z" fill="#1f1f1f" stroke="#000000"></path><path d="M0 141L119.7 211L130.7 58Z" fill="#272727" stroke="#000000"></path><path d="M0 111L0 141L130.7 58Z" fill="#3f3f3f" stroke="#000000"></path><path d="M779.7 540L830.3 540L768.7 480Z" fill="#373737" stroke="#000000"></path><path d="M960 272L837.3 283L960 320Z" fill="#181818" stroke="#000000"></path><path d="M960 272L836.3 208L837.3 283Z" fill="#6b6b6b" stroke="#000000"></path><path d="M0 0L0 111L130.7 58Z" fill="#626262" stroke="#000000"></path><path d="M960 320L837.3 283L883.3 386Z" fill="#474747" stroke="#000000"></path><path d="M960 430L960 320L883.3 386Z" fill="#373737" stroke="#000000"></path><path d="M960 166L960 84L840.3 126Z" fill="#181818" stroke="#000000"></path><path d="M70.7 430L93.7 540L180.3 416Z" fill="#6b6b6b" stroke="#000000"></path><path d="M0 540L93.7 540L70.7 430Z" fill="#181818" stroke="#000000"></path><path d="M0 268L0 383L90.7 392Z" fill="#6b6b6b" stroke="#000000"></path><path d="M108.7 0L0 0L130.7 58Z" fill="#595959" stroke="#000000"></path><path d="M960 84L960 0L827.3 0Z" fill="#505050" stroke="#000000"></path><path d="M0 383L0 438L70.7 430Z" fill="#505050" stroke="#000000"></path><path d="M960 540L960 430L836.3 427Z" fill="#595959" stroke="#000000"></path><path d="M0 438L0 540L70.7 430Z" fill="#1f1f1f" stroke="#000000"></path><path d="M830.3 540L960 540L836.3 427Z" fill="#272727" stroke="#000000"></path></g></svg>